<?xml version="1.0" encoding="UTF-8" standalone="no"?>
<!-- Generator: Adobe Illustrator 16.0.0, SVG Export Plug-In . SVG Version: 6.00 Build 0)  -->

<svg
   xmlns:dc="http://purl.org/dc/elements/1.1/"
   xmlns:cc="http://creativecommons.org/ns#"
   xmlns:rdf="http://www.w3.org/1999/02/22-rdf-syntax-ns#"
   xmlns:svg="http://www.w3.org/2000/svg"
   xmlns="http://www.w3.org/2000/svg"
   xmlns:sodipodi="http://sodipodi.sourceforge.net/DTD/sodipodi-0.dtd"
   xmlns:inkscape="http://www.inkscape.org/namespaces/inkscape"
   version="1.1"
   id="Layer_1"
   x="0px"
   y="0px"
   width="507"
   height="507"
   viewBox="0 0 507 507"
   enable-background="new 0 0 612 792"
   xml:space="preserve"
   inkscape:version="0.91 r13725"
   sodipodi:docname="branco3.svg"><metadata
     id="metadata26"><rdf:RDF><cc:Work
         rdf:about=""><dc:format>image/svg+xml</dc:format><dc:type
           rdf:resource="http://purl.org/dc/dcmitype/StillImage" /><dc:title></dc:title></cc:Work></rdf:RDF></metadata><defs
     id="defs24" /><sodipodi:namedview
     pagecolor="#ffffff"
     bordercolor="#666666"
     borderopacity="1"
     objecttolerance="10"
     gridtolerance="10"
     guidetolerance="10"
     inkscape:pageopacity="0"
     inkscape:pageshadow="2"
     inkscape:window-width="1920"
     inkscape:window-height="1058"
     id="namedview22"
     showgrid="false"
     fit-margin-top="0"
     fit-margin-left="0"
     fit-margin-right="0"
     fit-margin-bottom="0"
     inkscape:zoom="0.84281414"
     inkscape:cx="361.11069"
     inkscape:cy="163.76353"
     inkscape:window-x="-8"
     inkscape:window-y="-8"
     inkscape:window-maximized="1"
     inkscape:current-layer="Layer_1" /><g
     id="Rosa"
     display="none"
     style="display:none"
     transform="translate(-50.785,-142.534)"><g
       display="inline"
       id="g4"
       style="display:inline"><path
         d="m 306,130.368 c 29.871,0 50.563,9.18 65.11,28.892 13.391,18.14 19.914,43.036 25.673,65.007 5,19.076 9.719,37.093 18.593,49.737 10.979,15.649 33.25,21.916 59.034,29.168 22.533,6.34 48.072,13.519 67.02,27.479 20.588,15.166 30.19,35.937 30.208,65.343 -0.018,29.425 -9.614,50.197 -30.208,65.362 -18.947,13.96 -44.486,21.139 -67.02,27.479 -25.784,7.253 -48.049,13.514 -59.028,29.162 -8.874,12.644 -13.599,30.661 -18.592,49.737 -5.759,21.971 -12.283,46.867 -25.674,65.007 -14.547,19.712 -35.239,28.893 -65.11,28.893 -29.872,0 -50.563,-9.181 -65.11,-28.893 -13.391,-18.14 -19.915,-43.042 -25.668,-65.007 -5,-19.076 -9.718,-37.094 -18.592,-49.737 -10.979,-15.648 -33.25,-21.909 -59.034,-29.162 -22.533,-6.334 -48.072,-13.519 -67.02,-27.479 -20.588,-15.165 -30.19,-35.937 -30.209,-65.343 0.019,-29.425 9.615,-50.196 30.209,-65.362 18.947,-13.959 44.486,-21.138 67.02,-27.479 25.784,-7.252 48.055,-13.513 59.034,-29.162 8.874,-12.644 13.592,-30.661 18.592,-49.737 5.76,-21.971 12.283,-46.867 25.668,-65.007 14.541,-19.719 35.232,-28.898 65.104,-28.898 m 0,-15.888 c -108.759,0 -96.439,113.428 -122.382,150.399 C 159.958,298.6 24.553,280.864 24.48,396 24.553,511.136 159.959,493.399 183.619,527.121 209.561,564.092 197.241,677.52 306,677.52 414.764,677.52 402.438,564.092 428.381,527.122 452.041,493.399 587.447,511.136 587.52,396 587.447,280.864 452.041,298.6 428.381,264.879 402.439,227.908 414.764,114.48 306,114.48 l 0,0 z"
         id="path6"
         inkscape:connector-curvature="0"
         style="fill:#ed037c" /></g></g><g
     id="Lima"
     display="none"
     style="display:none"
     transform="translate(-50.785,-142.534)"><g
       id="XMLID_11_"
       display="inline"
       style="display:inline"><path
         id="XMLID_12_"
         d="m 306,130.368 c 29.871,0 50.563,9.18 65.11,28.892 13.391,18.14 19.914,43.036 25.673,65.007 5,19.076 9.719,37.093 18.593,49.737 10.979,15.649 33.25,21.916 59.034,29.168 22.533,6.34 48.072,13.519 67.02,27.479 20.588,15.166 30.19,35.937 30.208,65.343 -0.018,29.425 -9.614,50.197 -30.208,65.362 -18.947,13.96 -44.486,21.139 -67.02,27.479 -25.784,7.253 -48.049,13.514 -59.028,29.162 -8.874,12.644 -13.599,30.661 -18.592,49.737 -5.759,21.971 -12.283,46.867 -25.674,65.007 -14.547,19.712 -35.239,28.893 -65.11,28.893 -29.872,0 -50.563,-9.181 -65.11,-28.893 -13.391,-18.14 -19.915,-43.042 -25.668,-65.007 -5,-19.076 -9.718,-37.094 -18.592,-49.737 -10.979,-15.648 -33.25,-21.909 -59.034,-29.162 -22.533,-6.334 -48.072,-13.519 -67.02,-27.479 -20.588,-15.165 -30.19,-35.937 -30.209,-65.343 0.019,-29.425 9.615,-50.196 30.209,-65.362 18.947,-13.959 44.486,-21.138 67.02,-27.479 25.784,-7.252 48.055,-13.513 59.034,-29.162 8.874,-12.644 13.592,-30.661 18.592,-49.737 5.76,-21.971 12.283,-46.867 25.668,-65.007 14.541,-19.719 35.232,-28.898 65.104,-28.898 m 0,-15.888 c -108.759,0 -96.439,113.428 -122.382,150.399 C 159.958,298.6 24.553,280.864 24.48,396 24.553,511.136 159.959,493.399 183.619,527.121 209.561,564.092 197.241,677.52 306,677.52 414.764,677.52 402.438,564.092 428.381,527.122 452.041,493.399 587.447,511.136 587.52,396 587.447,280.864 452.041,298.6 428.381,264.879 402.439,227.908 414.764,114.48 306,114.48 l 0,0 z"
         inkscape:connector-curvature="0"
         style="fill:#bed747" /></g></g><g
     id="Cerceta"
     display="none"
     style="display:none"
     transform="translate(-50.785,-142.534)"><g
       id="XMLID_15_"
       display="inline"
       style="display:inline"><path
         id="XMLID_16_"
         d="m 306,130.368 c 29.871,0 50.563,9.18 65.11,28.892 13.391,18.14 19.914,43.036 25.673,65.007 5,19.076 9.719,37.093 18.593,49.737 10.979,15.649 33.25,21.916 59.034,29.168 22.533,6.34 48.072,13.519 67.02,27.479 20.588,15.166 30.19,35.937 30.208,65.343 -0.018,29.425 -9.614,50.197 -30.208,65.362 -18.947,13.96 -44.486,21.139 -67.02,27.479 -25.784,7.253 -48.049,13.514 -59.028,29.162 -8.874,12.644 -13.599,30.661 -18.592,49.737 -5.759,21.971 -12.283,46.867 -25.674,65.007 -14.547,19.712 -35.239,28.893 -65.11,28.893 -29.872,0 -50.563,-9.181 -65.11,-28.893 -13.391,-18.14 -19.915,-43.042 -25.668,-65.007 -5,-19.076 -9.718,-37.094 -18.592,-49.737 -10.979,-15.648 -33.25,-21.909 -59.034,-29.162 -22.533,-6.334 -48.072,-13.519 -67.02,-27.479 -20.588,-15.165 -30.19,-35.937 -30.209,-65.343 0.019,-29.425 9.615,-50.196 30.209,-65.362 18.947,-13.959 44.486,-21.138 67.02,-27.479 25.784,-7.252 48.055,-13.513 59.034,-29.162 8.874,-12.644 13.592,-30.661 18.592,-49.737 5.76,-21.971 12.283,-46.867 25.668,-65.007 14.541,-19.719 35.232,-28.898 65.104,-28.898 m 0,-15.888 c -108.759,0 -96.439,113.428 -122.382,150.399 C 159.958,298.6 24.553,280.864 24.48,396 24.553,511.136 159.959,493.399 183.619,527.121 209.561,564.092 197.241,677.52 306,677.52 414.764,677.52 402.438,564.092 428.381,527.122 452.041,493.399 587.447,511.136 587.52,396 587.447,280.864 452.041,298.6 428.381,264.879 402.439,227.908 414.764,114.48 306,114.48 l 0,0 z"
         inkscape:connector-curvature="0"
         style="fill:#28bdbe" /></g></g><g
     id="Azul"
     display="none"
     style="display:none"
     transform="translate(-50.785,-142.534)"><g
       id="XMLID_4_"
       display="inline"
       style="display:inline"><path
         id="XMLID_5_"
         d="m 306,130.368 c 29.871,0 50.563,9.18 65.11,28.892 13.391,18.14 19.914,43.036 25.673,65.007 5,19.076 9.719,37.093 18.593,49.737 10.979,15.649 33.25,21.916 59.034,29.168 22.533,6.34 48.072,13.519 67.02,27.479 20.588,15.166 30.19,35.937 30.208,65.343 -0.018,29.425 -9.614,50.197 -30.208,65.362 -18.947,13.96 -44.486,21.139 -67.02,27.479 -25.784,7.253 -48.049,13.514 -59.028,29.162 -8.874,12.644 -13.599,30.661 -18.592,49.737 -5.759,21.971 -12.283,46.867 -25.674,65.007 -14.547,19.712 -35.239,28.893 -65.11,28.893 -29.872,0 -50.563,-9.181 -65.11,-28.893 -13.391,-18.14 -19.915,-43.042 -25.668,-65.007 -5,-19.076 -9.718,-37.094 -18.592,-49.737 -10.979,-15.648 -33.25,-21.909 -59.034,-29.162 -22.533,-6.334 -48.072,-13.519 -67.02,-27.479 -20.588,-15.165 -30.19,-35.937 -30.209,-65.343 0.019,-29.425 9.615,-50.196 30.209,-65.362 18.947,-13.959 44.486,-21.138 67.02,-27.479 25.784,-7.252 48.055,-13.513 59.034,-29.162 8.874,-12.644 13.592,-30.661 18.592,-49.737 5.76,-21.971 12.283,-46.867 25.668,-65.007 14.541,-19.719 35.232,-28.898 65.104,-28.898 m 0,-15.888 c -108.759,0 -96.439,113.428 -122.382,150.399 C 159.958,298.6 24.553,280.864 24.48,396 24.553,511.136 159.959,493.399 183.619,527.121 209.561,564.092 197.241,677.52 306,677.52 414.764,677.52 402.438,564.092 428.381,527.122 452.041,493.399 587.447,511.136 587.52,396 587.447,280.864 452.041,298.6 428.381,264.879 402.439,227.908 414.764,114.48 306,114.48 l 0,0 z"
         inkscape:connector-curvature="0"
         style="fill:#2f2f7f" /></g></g><g
     id="Amarelo"
     display="none"
     style="display:none"
     transform="translate(-50.785,-142.534)"><g
       id="XMLID_7_"
       display="inline"
       style="display:inline"><path
         id="XMLID_8_"
         d="m 306,130.368 c 29.871,0 50.563,9.18 65.11,28.892 13.391,18.14 19.914,43.036 25.673,65.007 5,19.076 9.719,37.093 18.593,49.737 10.979,15.649 33.25,21.916 59.034,29.168 22.533,6.34 48.072,13.519 67.02,27.479 20.588,15.166 30.19,35.937 30.208,65.343 -0.018,29.425 -9.614,50.197 -30.208,65.362 -18.947,13.96 -44.486,21.139 -67.02,27.479 -25.784,7.253 -48.049,13.514 -59.028,29.162 -8.874,12.644 -13.599,30.661 -18.592,49.737 -5.759,21.971 -12.283,46.867 -25.674,65.007 -14.547,19.712 -35.239,28.893 -65.11,28.893 -29.872,0 -50.563,-9.181 -65.11,-28.893 -13.391,-18.14 -19.915,-43.042 -25.668,-65.007 -5,-19.076 -9.718,-37.094 -18.592,-49.737 -10.979,-15.648 -33.25,-21.909 -59.034,-29.162 -22.533,-6.334 -48.072,-13.519 -67.02,-27.479 -20.588,-15.165 -30.19,-35.937 -30.209,-65.343 0.019,-29.425 9.615,-50.196 30.209,-65.362 18.947,-13.959 44.486,-21.138 67.02,-27.479 25.784,-7.252 48.055,-13.513 59.034,-29.162 8.874,-12.644 13.592,-30.661 18.592,-49.737 5.76,-21.971 12.283,-46.867 25.668,-65.007 14.541,-19.719 35.232,-28.898 65.104,-28.898 m 0,-15.888 c -108.759,0 -96.439,113.428 -122.382,150.399 C 159.958,298.6 24.553,280.864 24.48,396 24.553,511.136 159.959,493.399 183.619,527.121 209.561,564.092 197.241,677.52 306,677.52 414.764,677.52 402.438,564.092 428.381,527.122 452.041,493.399 587.447,511.136 587.52,396 587.447,280.864 452.041,298.6 428.381,264.879 402.439,227.908 414.764,114.48 306,114.48 l 0,0 z"
         inkscape:connector-curvature="0"
         style="fill:#ffd531" /></g></g><path
     d="m 24.163351,143.76604 96.964939,46.18759 c -9.38016,19.21953 -14.07024,40.37819 -14.07024,63.46998 0,40.47904 14.32487,75.04384 42.9766,103.69341 28.54988,28.5507 63.06396,42.82456 103.54224,42.82456 37.6814,0 70.25934,-12.43857 97.73081,-37.31473 l 71.95784,79.29854 C 375.63581,485.31013 319.07426,507 253.57689,507 183.53023,507 123.78038,482.27462 74.32834,432.82387 24.776446,383.27327 3.7124467e-7,323.47085 3.7124467e-7,253.42461 -0.00199668,213.53969 8.0531193,176.98883 24.163351,143.76604 Z M 507,253.42361 c 0,39.64228 -7.92531,75.99144 -23.78091,109.04548 L 386.33103,316.2815 c 9.07261,-19.06376 13.61092,-40.01472 13.61092,-62.85789 0,-40.37719 -14.27394,-74.83914 -42.82482,-103.38885 -28.64873,-28.64956 -63.16381,-42.97534 -103.54124,-42.97534 -38.38138,0 -71.38968,12.87193 -99.0299,38.61779 L 82.587155,66.376679 C 130.37565,22.126225 187.37156,0 253.57589,0 323.5207,0 383.27254,24.7763 432.82344,74.328899 482.27548,123.78065 507,183.47822 507,253.42361 Z"
     id="path20"
     inkscape:connector-curvature="0"
     style="clip-rule:evenodd;fill:#3b3a8e;fill-rule:evenodd" /></svg>